<?xml version="1.0" encoding="UTF-8"?>
<svg preserveAspectRatio="none" viewBox="0 0 352 288" version="1.1" xmlns="http://www.w3.org/2000/svg" xmlns:xlink="http://www.w3.org/1999/xlink">
    <title>cam_overlay</title>
    <g id="cam_overlay" stroke="none" stroke-width="1" fill="none" fill-rule="evenodd">
        <path d="M352,0 L352,288 L0,288 L0,0 L352,0 Z M175.5,48 C134.354786,48 101,93.8908131 101,150.5 C101,207.109187 134.354786,253 175.5,253 C216.645214,253 250,207.109187 250,150.5 C250,93.8908131 216.645214,48 175.5,48 Z" id="Combined-Shape-Copy" fill-opacity="0.4" fill="#000000"></path>
        <path d="M352,0 L352,288 L0,288 L0,0 L352,0 Z M175.5,38 C129.384223,38 92,88.3679656 92,150.5 C92,212.632034 129.384223,263 175.5,263 C221.615777,263 259,212.632034 259,150.5 C259,88.3679656 221.615777,38 175.5,38 Z" id="Combined-Shape-Copy-2" fill-opacity="0.4" fill="#000000"></path>
        <path d="M352,0 L352,288 L0,288 L0,0 L352,0 Z M175.5,26 C124.413661,26 83,81.2928334 83,149.5 C83,217.707167 124.413661,273 175.5,273 C226.586339,273 268,217.707167 268,149.5 C268,81.2928334 226.586339,26 175.5,26 Z" id="Combined-Shape" fill-opacity="0.4" fill="#000000"></path>
        <ellipse id="Oval" stroke="#00E3FF" stroke-width="2" cx="175.5" cy="149" rx="92.5" ry="123"></ellipse>
        <ellipse id="Oval-Copy-6" stroke="#00E3FF" stroke-width="2" opacity="0.596842448" cx="176" cy="149.5" rx="97" ry="128.5"></ellipse>
        <ellipse id="Oval-Copy-7" stroke="#00E3FF" stroke-width="2" opacity="0.301571801" cx="175.5" cy="149" rx="101.5" ry="135"></ellipse>
        <polyline id="Path-2" stroke="#00E3FF" stroke-width="2" stroke-linecap="round" points="43.5 120.5 62.5 144 43.5 167.5"></polyline>
        <polyline id="Path-2-Copy" stroke="#00E3FF" stroke-width="2" opacity="0.6" stroke-linecap="round" points="33.5 120.5 52.5 144 33.5 167.5"></polyline>
        <polyline id="Path-2-Copy-2" stroke="#00E3FF" stroke-width="2" opacity="0.3" stroke-linecap="round" points="23.5 120.5 42.5 144 23.5 167.5"></polyline>
        <polyline id="Path-2-Copy-3" stroke="#00E3FF" stroke-width="2" opacity="0.15108817" stroke-linecap="round" points="13.5 120.5 32.5 144 13.5 167.5"></polyline>
        <polyline id="Path-2" stroke="#00E3FF" stroke-width="2" stroke-linecap="round" points="308.5 120.5 289.5 144 308.5 167.5"></polyline>
        <polyline id="Path-2-Copy" stroke="#00E3FF" stroke-width="2" opacity="0.6" stroke-linecap="round" points="318.5 120.5 299.5 144 318.5 167.5"></polyline>
        <polyline id="Path-2-Copy-2" stroke="#00E3FF" stroke-width="2" opacity="0.3" stroke-linecap="round" points="328.5 120.5 309.5 144 328.5 167.5"></polyline>
        <polyline id="Path-2-Copy-3" stroke="#00E3FF" stroke-width="2" opacity="0.15108817" stroke-linecap="round" points="338.5 120.5 319.5 144 338.5 167.5"></polyline>
    </g>
</svg>