<svg xmlns="http://www.w3.org/2000/svg" xmlns:xlink="http://www.w3.org/1999/xlink" width="144" height="17" viewBox="0 0 144 17">
    <defs>
        <path id="prefix__a" d="M0.005 0.052L13.029 0.052 13.029 12.355 0.005 12.355z"/>
    </defs>
    <g fill="none" fill-rule="evenodd">
        <g>
            <g transform="translate(.696) translate(0 4.276)">
                <mask id="prefix__b" fill="#fff">
                    <use xlink:href="#prefix__a"/>
                </mask>
                <path fill="#000" d="M8.308 12.355L4.695 12.355 0 0.052 3.835 0.052 6.538 9.118 6.589 9.118 9.367 0.052 13.029 0.052 8.308 12.355" mask="url(#prefix__b)"/>
            </g>
            <path fill="#000" d="M21.068 10.642c-.341.255-.907.463-2.333.673-1.278.207-2.337.507-2.337 1.848 0 1.134.936 1.477 1.6 1.477 1.525 0 3.07-.923 3.07-2.426v-1.572zm3.372 3.585c0 1.458.342 1.78.761 1.92v.484h-3.714c-.195-.578-.244-.762-.318-1.458-.787.764-1.895 1.782-4.228 1.782-1.967 0-3.985-1.043-3.985-3.585 0-2.406 1.625-3.629 3.812-3.93l3.096-.442c.543-.07 1.204-.278 1.204-.97 0-1.364-1.374-1.432-2.26-1.432-1.72 0-2.014.991-2.113 1.71h-3.32c.393-3.772 3.173-4.3 5.85-4.3 1.843 0 5.215.528 5.215 3.56v6.66zM26.503 16.631L29.946 16.631 29.946.027 26.503.027zM36.485 4.328h2.14v2.313h-2.14v6.684c0 .718.026.994 1.427.994.222 0 .465-.022.713-.045v2.447c-.542.026-1.084.051-1.623.051h-.442c-2.974 0-3.516-1.066-3.516-2.663V6.641h-1.769V4.328h1.769V.997h3.441v3.331M48.656 9.253c-.197-1.987-1.55-2.589-2.655-2.589-1.624 0-2.484.972-2.68 2.59h5.335zm3.393 3.77c-.911 2.96-3.515 3.932-5.752 3.932-3.688 0-6.517-1.666-6.517-6.728 0-1.481.542-6.222 6.27-6.222 2.58 0 6.146 1.154 6.146 6.777v.578h-8.973c.098.923.294 3.004 3.074 3.004.959 0 1.94-.463 2.21-1.34h3.542zM65.131 12.146c-.124 1.271-1.182 4.809-5.976 4.809-4.92 0-6.047-3.538-6.047-6.128 0-3.978 1.841-6.822 6.268-6.822 2.067 0 5.459.878 5.776 4.715h-3.49c-.15-.782-.637-1.987-2.115-1.987h-.17c-2.165 0-2.732 2.038-2.732 3.565 0 1.338.05 4 2.657 4 1.747 0 2.335-1.574 2.335-2.152h3.494M78.502 16.631h-3.44v-7.47c0-.902-.05-2.428-2.24-2.428-1.521 0-2.701.972-2.701 2.845v7.053h-3.443V.027h3.443v5.897h.049c.443-1.016 1.917-1.919 3.784-1.919 2.556 0 4.548 1.411 4.548 4.117v8.51M80.644 16.631L87.527 16.631 87.527 14.319 80.644 14.319z" transform="translate(.696)"/>
        </g>
    </g>
</svg>
