<?xml version="1.0" encoding="utf-8"?>
<!-- Generator: Adobe Illustrator 24.0.3, SVG Export Plug-In . SVG Version: 6.00 Build 0)  -->
<svg version="1.1" id="Layer_1" xmlns="http://www.w3.org/2000/svg" xmlns:xlink="http://www.w3.org/1999/xlink" x="0px" y="0px"
	 viewBox="0 0 1000 1000" style="enable-background:new 0 0 1000 1000;" xml:space="preserve">
<style type="text/css">
	.st0{fill:#FFFFFF;}
</style>
<g>
	<g transform="translate(0.000000,511.000000) scale(0.100000,-0.100000)">
		<path class="st0" d="M3847.7,4995.8c-819.4-98.8-1516-709.9-1732.1-1518.6c-80.1-301.6-77.4-742,5.3-1043.6
			c80.1-285.6,154.8-373.7,325.6-373.7c141.4,0,226.9,56.1,277.6,178.8c34.7,82.7,34.7,109.4-18.7,296.2
			c-120.1,411-58.7,859.4,160.1,1198.4c429.7,664.6,1235.7,875.4,1937.6,507.1c384.3-202.8,680.6-640.5,739.3-1088.9
			c26.7-197.5,24-266.9-16-472.4c-42.7-213.5-42.7-248.2-5.4-333.6c40-101.4,157.5-178.8,264.2-178.8
			c104.1,0,242.9,109.4,277.6,221.5c133.4,397.7,106.8,883.4-64.1,1331.8C5667.9,4571.5,4765.8,5105.3,3847.7,4995.8z"/>
		<path class="st0" d="M3810.3,3826.8c-264.2-93.4-429.7-248.2-549.8-507.1c-58.7-125.4-58.7-138.8-72.1-2137.8l-13.3-2015
			l-194.8,341.6c-224.2,387-325.6,501.8-536.5,600.5c-120.1,56.1-189.5,69.4-349.6,69.4c-173.5,0-226.9-13.3-379-88.1
			c-293.6-144.1-427-384.3-427-766c0-306.9,61.4-507.1,397.7-1321.1C2134.2-3075,2644-3985.1,3097.7-4516.2
			c213.5-253.6,309.6-304.2,464.4-258.9c141.5,42.7,221.5,160.1,202.8,304.2c-8,74.7-50.7,144.1-154.8,266.9
			c-517.8,589.8-1064.9,1606.7-1588,2954.5c-90.7,234.9-122.8,355-133.4,512.4c-13.3,192.2-10.7,208.2,53.4,272.2
			c85.4,85.4,197.5,90.7,293.6,16c37.4-29.4,269.6-405.7,515.1-835.4c248.2-427,488.4-819.4,533.8-864.7
			c114.8-120.1,264.2-122.8,389.7-10.7l88.1,77.4L3775.6,504c13.3,2815.7,5.3,2647.6,168.1,2743.7c112.1,66.7,272.2,40,376.3-64.1
			l82.7-82.7L4416,1278c16-2031.1,5.3-1929.6,200.2-1993.7c128.1-42.7,266.9,5.4,336.3,117.4c48,77.4,50.7,141.4,50.7,878.1
			c0,851.4,5.3,899.4,138.8,990.2c77.4,56.1,272.2,53.4,357.6,0c138.8-93.4,144.1-128.1,144.1-1043.6c0-790,2.7-854.1,50.7-931.5
			c106.8-176.2,379-176.2,485.8,0c45.4,74.7,50.7,138.8,50.7,731.3c0,712.6,10.7,768.7,160.1,846.1
			c160.1,82.7,365.6,26.7,440.4-120.1c32-64,40-197.5,40-720.6c0-707.3,10.7-763.3,160.1-840.7c98.8-50.7,168.1-50.7,266.9,0
			c136.1,69.4,160.1,154.8,160.1,568.5c0,341.7,5.3,379,61.4,461.8c32.1,48,104.1,104.1,157.5,125.4c141.5,56,277.6-16,365.6-189.5
			c64-125.5,64-144.1,77.4-934.1c24-1467.9-85.4-2591.5-317.6-3282.8c-101.4-309.6-101.4-373.7,13.3-488.4
			c138.8-138.8,341.6-117.5,443,48c176.2,288.2,355,1209,427.1,2188.5c32,469.7,34.7,2097.8,2.6,2348.7
			c-88,669.9-685.9,1091.6-1230.4,864.7c-32-13.3-50.7,8-74.7,74.7c-56.1,152.1-256.2,352.3-448.4,445.7
			c-146.8,74.7-202.9,85.4-365.6,85.4c-106.8,0-245.5-21.3-312.3-42.7c-109.4-40-120.1-40-144.1,2.7
			c-13.3,24-77.4,101.4-141.5,168.1c-205.5,218.8-509.8,312.3-840.7,256.2l-125.4-21.4l-8,661.9c-8,651.2-8,664.6-77.4,811.3
			c-146.8,312.3-435,504.4-782,523.1C4002.5,3874.9,3911.7,3861.5,3810.3,3826.8z"/>
	</g>
</g>
</svg>
