<?xml version="1.0" encoding="UTF-8"?>
<svg preserveAspectRatio="xMinYMax meet" viewBox="0 0 350 210" version="1.1" xmlns="http://www.w3.org/2000/svg" xmlns:xlink="http://www.w3.org/1999/xlink">
    <title>arriving-soon</title>
    <g id="arriving-soon" stroke="none" stroke-width="1" fill="none" fill-rule="evenodd">
        <rect fill="#000000" x="0" y="0" width="100%" height="100%"></rect>
        <path d="M50.488,137.504 C52.756,137.504 55.132,136.892 56.752,135.2 C56.788,135.812 56.932,136.424 57.112,137 L62.296,137 C61.828,136.244 61.648,134.552 61.648,132.86 L61.648,123.176 C61.648,118.712 57.184,117.884 53.476,117.884 C49.3,117.884 45.016,119.324 44.728,124.112 L49.84,124.112 C50.02,122.096 51.28,121.304 53.224,121.304 C55.024,121.304 56.536,121.628 56.536,123.824 C56.536,125.912 53.62,125.804 50.488,126.272 C47.32,126.704 44.152,127.712 44.152,131.924 C44.152,135.74 46.96,137.504 50.488,137.504 Z M52.396,134.084 C50.74,134.084 49.264,133.616 49.264,131.708 C49.264,129.836 50.704,129.296 52.288,128.972 C53.872,128.684 55.672,128.648 56.536,127.892 L56.536,129.8 C56.536,130.916 56.392,134.084 52.396,134.084 Z M70.12,137 L70.12,128.612 C70.12,125.336 71.416,122.636 75.16,122.636 C75.772,122.636 76.528,122.708 76.996,122.816 L76.996,118.064 C76.672,117.956 76.24,117.884 75.88,117.884 C73.396,117.884 70.876,119.504 69.94,121.844 L69.868,121.844 L69.868,118.388 L65.008,118.388 L65.008,137 L70.12,137 Z M83.524,137 L83.524,128.612 C83.524,125.336 84.82,122.636 88.564,122.636 C89.176,122.636 89.932,122.708 90.4,122.816 L90.4,118.064 C90.076,117.956 89.644,117.884 89.284,117.884 C86.8,117.884 84.28,119.504 83.344,121.844 L83.272,121.844 L83.272,118.388 L78.412,118.388 L78.412,137 L83.524,137 Z M97.072,115.508 L97.072,111.296 L91.96,111.296 L91.96,115.508 L97.072,115.508 Z M97.072,137 L97.072,118.388 L91.96,118.388 L91.96,137 L97.072,137 Z M110.8,137 L117.1,118.388 L112.024,118.388 L108.1,131.096 L108.028,131.096 L104.104,118.388 L98.74,118.388 L105.112,137 L110.8,137 Z M123.88,115.508 L123.88,111.296 L118.768,111.296 L118.768,115.508 L123.88,115.508 Z M123.88,137 L123.88,118.388 L118.768,118.388 L118.768,137 L123.88,137 Z M132.424,137 L132.424,127.244 C132.424,123.464 133.612,121.916 136.384,121.916 C138.76,121.916 139.66,123.428 139.66,126.488 L139.66,137 L144.772,137 L144.772,125.552 C144.772,120.944 143.404,117.884 137.968,117.884 C135.808,117.884 133.576,118.892 132.28,120.98 L132.172,120.98 L132.172,118.388 L127.312,118.388 L127.312,137 L132.424,137 Z M156.304,144.056 C164.872,144.056 165.952,138.872 165.952,135.812 L165.952,118.388 L161.092,118.388 L161.092,120.872 L161.02,120.872 C159.796,118.712 157.924,117.884 155.476,117.884 C150.256,117.884 147.484,122.276 147.484,127.1 C147.484,132.212 149.86,136.46 155.44,136.46 C157.672,136.46 159.904,135.524 161.02,133.58 L161.092,133.58 L161.092,136.028 C161.128,138.692 159.832,140.636 156.988,140.636 C155.188,140.636 153.64,139.988 153.172,138.08 L148.096,138.08 C148.348,142.328 152.632,144.056 156.304,144.056 Z M156.736,132.608 C153.604,132.608 152.596,129.692 152.596,127.028 C152.596,124.256 153.856,121.736 156.736,121.736 C160.048,121.736 161.092,124.436 161.092,127.46 C161.092,130.124 159.652,132.608 156.736,132.608 Z" id="arriving" fill="#FFFFFF" fill-rule="nonzero"></path>
        <path d="M53.532,151 C57.6,151 61.344,152.368 61.74,156.94 L61.74,156.94 L56.88,156.94 C56.736,154.96 55.224,154.42 53.388,154.42 C52.236,154.42 50.544,154.636 50.544,156.148 C50.544,157.984 53.424,158.236 56.34,158.92 C59.328,159.604 62.244,160.684 62.244,164.14 C62.244,169.036 57.996,170.62 53.748,170.62 C49.428,170.62 45.216,169 45,164.068 L45,164.068 L49.86,164.068 C49.896,166.3 51.768,167.2 53.784,167.2 C55.26,167.2 57.132,166.624 57.132,164.824 C57.132,163.276 55.008,162.736 51.336,161.944 C48.384,161.296 45.432,160.252 45.432,156.976 C45.432,152.224 49.536,151 53.532,151 Z M73.668,151 C79.536,151 83.316,154.888 83.316,160.828 C83.316,166.732 79.536,170.62 73.668,170.62 C67.836,170.62 64.056,166.732 64.056,160.828 C64.056,154.888 67.836,151 73.668,151 Z M95.064,151 C100.932,151 104.712,154.888 104.712,160.828 C104.712,166.732 100.932,170.62 95.064,170.62 C89.232,170.62 85.452,166.732 85.452,160.828 C85.452,154.888 89.232,151 95.064,151 Z M145.636,166.092 L145.636,170.484 L129.636,170.484 L129.636,166.092 L145.636,166.092 Z M118.08,151 C123.516,151 124.884,154.06 124.884,158.668 L124.884,158.668 L124.884,170.116 L119.772,170.116 L119.772,159.604 C119.772,156.544 118.872,155.032 116.496,155.032 C113.724,155.032 112.536,156.58 112.536,160.36 L112.536,160.36 L112.536,170.116 L107.424,170.116 L107.424,151.504 L112.284,151.504 L112.284,154.096 L112.392,154.096 C113.688,152.008 115.92,151 118.08,151 Z M73.668,154.852 C70.212,154.852 69.168,157.84 69.168,160.828 C69.168,163.78 70.212,166.768 73.668,166.768 C77.16,166.768 78.204,163.78 78.204,160.828 C78.204,157.84 77.16,154.852 73.668,154.852 Z M95.064,154.852 C91.608,154.852 90.564,157.84 90.564,160.828 C90.564,163.78 91.608,166.768 95.064,166.768 C98.556,166.768 99.6,163.78 99.6,160.828 C99.6,157.84 98.556,154.852 95.064,154.852 Z" id="soon_" fill="#FFFFFF" fill-rule="nonzero"></path>
    </g>
</svg>