<svg xmlns="http://www.w3.org/2000/svg" viewBox="0 0 1617 1024"><defs><style>.cls-1{fill:#666;}</style></defs><title>stripe</title><g id="Layer_4" data-name="Layer 4"><polygon points="1341.45 1023.5 1616.5 748.45 1616.5 794.51 1387.51 1023.5 1341.45 1023.5"/><path d="M1616,749.66V794.3L1387.3,1023h-44.64L1616,749.66m1-2.42L1340.24,1024h47.47L1617,794.71V747.24Z" transform="translate(0 0)"/><polygon points="1434.17 1023.5 1616.5 841.17 1616.5 887.23 1480.23 1023.5 1434.17 1023.5"/><path d="M1616,842.38V887l-136,136h-44.64L1616,842.38m1-2.41-184,184h47.47L1617,887.44V840Z" transform="translate(0 0)"/><polygon points="1063.28 1023.5 1616.5 470.28 1616.5 516.33 1109.33 1023.5 1063.28 1023.5"/><path d="M1616,471.48v44.64L1109.12,1023h-44.64L1616,471.48m1-2.41L1062.07,1024h47.47L1617,516.54V469.07Z" transform="translate(0 0)"/><polygon points="1156 1023.5 1616.5 563 1616.5 609.06 1202.06 1023.5 1156 1023.5"/><path d="M1616,564.21v44.64L1201.85,1023h-44.64L1616,564.21m1-2.42L1154.79,1024h47.47L1617,609.26V561.79Z" transform="translate(0 0)"/><polygon points="1526.9 1023.5 1616.5 933.9 1616.5 979.96 1572.95 1023.5 1526.9 1023.5"/><path d="M1616,935.11v44.64L1572.75,1023h-44.64L1616,935.11m1-2.42L1525.69,1024h47.47L1617,980.16V932.69Z" transform="translate(0 0)"/><polygon points="0.5 509.96 509.96 0.5 556.01 0.5 0.5 556.01 0.5 509.96"/><path d="M554.81,1,1,554.81V510.16L510.16,1h44.65m2.41-1H509.75L0,509.75v47.47L557.22,0Z" transform="translate(0 0)"/><polygon points="1248.73 1023.5 1616.5 655.73 1616.5 701.78 1294.78 1023.5 1248.73 1023.5"/><path d="M1616,656.93v44.64L1294.57,1023h-44.64L1616,656.93m1-2.41L1247.52,1024H1295l322-322V654.52Z" transform="translate(0 0)"/><polygon points="0.5 46.34 46.34 0.5 92.39 0.5 0.5 92.39 0.5 46.34"/><path d="M91.18,1,1,91.18V46.54L46.54,1H91.18M93.6,0H46.13L0,46.13V93.6L93.6,0Z" transform="translate(0 0)"/><polygon points="0.5 417.23 417.23 0.5 463.29 0.5 0.5 463.29 0.5 417.23"/><path d="M462.08,1,1,462.08V417.44L417.44,1h44.64m2.42-1H417L0,417V464.5L464.5,0Z" transform="translate(0 0)"/><polygon points="0.5 139.06 139.06 0.5 185.12 0.5 0.5 185.12 0.5 139.06"/><path d="M183.91,1,1,183.91V139.27L139.27,1h44.64m2.41-1H138.85L0,138.85v47.47L186.32,0Z" transform="translate(0 0)"/><polygon points="0.87 0 0 0 0 0.87 0.87 0"/><polygon points="0.87 0 0 0 0 0.87 0.87 0 0.87 0"/><polygon points="0.5 231.78 231.78 0.5 277.84 0.5 0.5 277.84 0.5 231.78"/><path d="M276.63,1,1,276.63V232L232,1h44.64m2.42-1H231.58L0,231.58v47.47L279.05,0Z" transform="translate(0 0)"/><polygon points="0.5 324.51 324.51 0.5 370.56 0.5 0.5 370.56 0.5 324.51"/><path d="M369.36,1,1,369.36V324.72L324.72,1h44.64m2.41-1H324.3L0,324.3v47.47L371.77,0Z" transform="translate(0 0)"/><polygon points="599.65 1023.5 1616.5 6.65 1616.5 52.71 645.71 1023.5 599.65 1023.5"/><path d="M1616,7.86V52.5L645.5,1023H600.86L1616,7.86m1-2.41L598.45,1024h47.47L1617,52.92V5.45Z" transform="translate(0 0)"/><polygon points="0.5 788.13 788.13 0.5 834.19 0.5 0.5 834.19 0.5 788.13"/><path d="M833,1,1,833V788.34L788.34,1H833m2.41-1H787.92L0,787.92v47.47L835.39,0Z" transform="translate(0 0)"/><polygon points="228.75 1023.5 1251.76 0.5 1297.81 0.5 274.81 1023.5 228.75 1023.5"/><path d="M1296.6,1,274.6,1023H230L1252,1h44.64M1299,0h-47.47l-1024,1024H275L1299,0Z" transform="translate(0 0)"/><polygon points="321.48 1023.5 1344.48 0.5 1390.54 0.5 367.54 1023.5 321.48 1023.5"/><path d="M1389.33,1l-1022,1022H322.69L1344.69,1h44.64m2.41-1h-47.47l-1024,1024h47.47L1391.74,0Z" transform="translate(0 0)"/><polygon points="414.2 1023.5 1437.2 0.5 1483.26 0.5 460.26 1023.5 414.2 1023.5"/><path d="M1482.05,1l-1022,1022H415.41L1437.41,1h44.64m2.42-1H1437L413,1024h47.47L1484.47,0Z" transform="translate(0 0)"/><polygon points="0.5 973.58 973.58 0.5 1019.64 0.5 0.5 1019.64 0.5 973.58"/><path d="M1018.43,1,1,1018.43V973.79L973.79,1h44.64m2.41-1H973.37L0,973.37v47.47L1020.84,0Z" transform="translate(0 0)"/><polygon points="43.3 1023.5 1066.31 0.5 1112.36 0.5 89.36 1023.5 43.3 1023.5"/><path d="M1111.15,1,89.15,1023H44.51L1066.51,1h44.64m2.42-1H1066.1L42.1,1024H89.57L1113.57,0Z" transform="translate(0 0)"/><polygon points="136.03 1023.5 1159.03 0.5 1205.09 0.5 182.09 1023.5 136.03 1023.5"/><path d="M1203.88,1l-1022,1022H137.24L1159.24,1h44.64m2.41-1h-47.47l-1024,1024h47.47L1206.29,0Z" transform="translate(0 0)"/><polygon points="692.38 1023.5 1616.5 99.38 1616.5 145.43 738.43 1023.5 692.38 1023.5"/><path d="M1616,100.58v44.65L738.23,1023H693.58L1616,100.58m1-2.41L691.17,1024h47.47L1617,145.64V98.17Z" transform="translate(0 0)"/><polygon points="970.55 1023.5 1616.5 377.55 1616.5 423.61 1016.61 1023.5 970.55 1023.5"/><path d="M1616,378.76V423.4L1016.4,1023H971.76L1616,378.76m1-2.42L969.34,1024h47.47L1617,423.81V376.34Z" transform="translate(0 0)"/><polygon points="0.5 602.68 602.68 0.5 648.74 0.5 0.5 648.74 0.5 602.68"/><path d="M647.53,1,1,647.53V602.89L602.89,1h44.64m2.41-1H602.48L0,602.48v47.46L649.94,0Z" transform="translate(0 0)"/><polygon points="785.1 1023.5 1616.5 192.1 1616.5 238.16 831.16 1023.5 785.1 1023.5"/><path d="M1616,193.31V238L831,1023H786.31L1616,193.31m1-2.41L783.9,1024h47.47L1617,238.36V190.9Z" transform="translate(0 0)"/><polygon points="506.93 1023.5 1529.93 0.5 1575.98 0.5 552.98 1023.5 506.93 1023.5"/><path d="M1574.78,1l-1022,1022H508.14L1530.14,1h44.64m2.41-1h-47.47l-1024,1024h47.47L1577.19,0Z" transform="translate(0 0)"/><polygon points="0.5 880.86 880.86 0.5 926.91 0.5 0.5 926.91 0.5 880.86"/><path d="M925.7,1,1,925.7V881.06L881.06,1H925.7m2.42-1H880.65L0,880.65v47.47L928.12,0Z" transform="translate(0 0)"/><polygon points="0.5 695.41 695.41 0.5 741.46 0.5 0.5 741.46 0.5 695.41"/><path d="M740.26,1,1,740.26V695.61L695.61,1h44.65m2.41-1H695.2L0,695.2v47.47L742.67,0Z" transform="translate(0 0)"/><polygon points="877.83 1023.5 1616.5 284.83 1616.5 330.88 923.88 1023.5 877.83 1023.5"/><path d="M1616,286v44.65L923.68,1023H879l737-737m1-2.41L876.62,1024h47.47L1617,331.09V283.62Z" transform="translate(0 0)"/><polygon class="cls-1" points="0.5 1.08 1.08 0.5 44.92 0.5 0.5 44.92 0.5 1.08"/><path d="M43.71,1,1,43.71V1.29L1.29,1H43.71m2.42-1H.87L0,.87V46.13L46.13,0Z" transform="translate(0 0)"/><polygon class="cls-1" points="0.5 93.8 93.8 0.5 137.65 0.5 0.5 137.65 0.5 93.8"/><path d="M136.44,1,1,136.44V94L94,1h42.43m2.41-1H93.6L0,93.6v45.25L138.85,0Z" transform="translate(0 0)"/><polygon class="cls-1" points="0.5 186.53 186.53 0.5 230.37 0.5 0.5 230.37 0.5 186.53"/><path d="M229.16,1,1,229.16V186.74L186.74,1h42.42m2.42-1H186.32L0,186.32v45.26L231.58,0Z" transform="translate(0 0)"/><polygon class="cls-1" points="0.5 279.25 279.25 0.5 323.09 0.5 0.5 323.09 0.5 279.25"/><path d="M321.89,1,1,321.89V279.46L279.46,1h42.43m2.41-1H279.05L0,279.05V324.3L324.3,0Z" transform="translate(0 0)"/><polygon class="cls-1" points="0.5 371.98 371.98 0.5 415.82 0.5 0.5 415.82 0.5 371.98"/><path d="M414.61,1,1,414.61V372.19L372.19,1h42.42M417,0H371.77L0,371.77V417L417,0Z" transform="translate(0 0)"/><polygon class="cls-1" points="0.5 464.7 464.7 0.5 508.54 0.5 0.5 508.54 0.5 464.7"/><path d="M507.34,1,1,507.34V464.91L464.91,1h42.43m2.41-1H464.5L0,464.5v45.25L509.75,0Z" transform="translate(0 0)"/><polygon class="cls-1" points="0.5 557.43 557.43 0.5 601.27 0.5 0.5 601.27 0.5 557.43"/><path d="M600.06,1,1,600.06V557.63L557.63,1h42.43m2.42-1H557.22L0,557.22v45.26L602.48,0Z" transform="translate(0 0)"/><polygon class="cls-1" points="0.5 650.15 650.15 0.5 693.99 0.5 0.5 693.99 0.5 650.15"/><path d="M692.79,1,1,692.79V650.36L650.36,1h42.43m2.41-1H649.94L0,649.94V695.2L695.2,0Z" transform="translate(0 0)"/><polygon class="cls-1" points="0.5 742.88 742.88 0.5 786.72 0.5 0.5 786.72 0.5 742.88"/><path d="M785.51,1,1,785.51V743.08L743.08,1h42.43m2.41-1H742.67L0,742.67v45.25L787.92,0Z" transform="translate(0 0)"/><polygon class="cls-1" points="0.5 835.6 835.6 0.5 879.44 0.5 0.5 879.44 0.5 835.6"/><path d="M878.23,1,1,878.23V835.81L835.81,1h42.42m2.42-1H835.39L0,835.39v45.26L880.65,0Z" transform="translate(0 0)"/><polygon class="cls-1" points="0.5 928.33 928.33 0.5 972.17 0.5 0.5 972.17 0.5 928.33"/><path d="M971,1,1,971V928.53L928.53,1H971m2.41-1H928.12L0,928.12v45.25L973.37,0Z" transform="translate(0 0)"/><polygon class="cls-1" points="0.5 1023.5 0.5 1021.05 1021.05 0.5 1064.89 0.5 41.89 1023.5 0.5 1023.5"/><path d="M1063.68,1,41.68,1023H1v-1.74L1021.26,1h42.42m2.42-1h-45.26L0,1020.84V1024H42.1L1066.1,0Z" transform="translate(0 0)"/><polygon class="cls-1" points="90.78 1023.5 1113.78 0.5 1157.62 0.5 134.62 1023.5 90.78 1023.5"/><path d="M1156.41,1l-1022,1022H92L1114,1h42.43m2.41-1h-45.25L89.57,1024h45.25L1158.82,0Z" transform="translate(0 0)"/><polygon class="cls-1" points="183.5 1023.5 1206.5 0.5 1250.34 0.5 227.34 1023.5 183.5 1023.5"/><path d="M1249.13,1l-1022,1022H184.71L1206.71,1h42.42m2.42-1h-45.26l-1024,1024h45.26L1251.55,0Z" transform="translate(0 0)"/><polygon class="cls-1" points="276.22 1023.5 1299.22 0.5 1343.07 0.5 320.06 1023.5 276.22 1023.5"/><path d="M1341.86,1l-1022,1022H277.43L1299.43,1h42.43m2.41-1H1299L275,1024h45.25L1344.27,0Z" transform="translate(0 0)"/><polygon class="cls-1" points="368.95 1023.5 1391.95 0.5 1435.79 0.5 412.79 1023.5 368.95 1023.5"/><path d="M1434.58,1l-1022,1022H370.16L1392.16,1h42.42M1437,0h-45.26l-1024,1024H413L1437,0Z" transform="translate(0 0)"/><polygon class="cls-1" points="461.67 1023.5 1484.67 0.5 1528.52 0.5 505.51 1023.5 461.67 1023.5"/><path d="M1527.31,1l-1022,1022H462.88L1484.88,1h42.43m2.41-1h-45.25l-1024,1024h45.25L1529.72,0Z" transform="translate(0 0)"/><polygon class="cls-1" points="554.4 1023.5 1577.4 0.5 1616.5 0.5 1616.5 5.24 598.24 1023.5 554.4 1023.5"/><path d="M1616,1V5L598,1023H555.61L1577.61,1H1616m1-1h-39.81l-1024,1024h45.26L1617,5.45V0Z" transform="translate(0 0)"/><polygon class="cls-1" points="647.12 1023.5 1616.5 54.12 1616.5 97.96 690.96 1023.5 647.12 1023.5"/><path d="M1616,55.33V97.76L690.76,1023H648.33L1616,55.33m1-2.41L645.92,1024h45.25L1617,98.17V52.92Z" transform="translate(0 0)"/><polygon class="cls-1" points="739.85 1023.5 1616.5 146.85 1616.5 190.69 783.69 1023.5 739.85 1023.5"/><path d="M1616,148.05v42.43L783.48,1023H741.05l875-874.95m1-2.41L738.64,1024H783.9L1617,190.9V145.64Z" transform="translate(0 0)"/><polygon class="cls-1" points="832.57 1023.5 1616.5 239.57 1616.5 283.41 876.41 1023.5 832.57 1023.5"/><path d="M1616,240.78v42.43L876.21,1023H833.78L1616,240.78m1-2.42L831.37,1024h45.25L1617,283.62V238.36Z" transform="translate(0 0)"/><polygon class="cls-1" points="925.3 1023.5 1616.5 332.3 1616.5 376.14 969.14 1023.5 925.3 1023.5"/><path d="M1616,333.5v42.43L968.93,1023H926.5L1616,333.5m1-2.41L924.09,1024h45.25L1617,376.34V331.09Z" transform="translate(0 0)"/><polygon class="cls-1" points="1018.02 1023.5 1616.5 425.02 1616.5 468.86 1061.86 1023.5 1018.02 1023.5"/><path d="M1616,426.23v42.42L1061.65,1023h-42.42L1616,426.23m1-2.42L1016.81,1024h45.26L1617,469.07V423.81Z" transform="translate(0 0)"/><polygon class="cls-1" points="1110.75 1023.5 1616.5 517.75 1616.5 561.59 1154.59 1023.5 1110.75 1023.5"/><path d="M1616,519v42.43L1154.38,1023H1112L1616,519m1-2.41L1109.54,1024h45.25L1617,561.79V516.54Z" transform="translate(0 0)"/><polygon class="cls-1" points="1203.47 1023.5 1616.5 610.47 1616.5 654.31 1247.31 1023.5 1203.47 1023.5"/><path d="M1616,611.68V654.1L1247.1,1023h-42.42L1616,611.68m1-2.42L1202.26,1024h45.26L1617,654.52V609.26Z" transform="translate(0 0)"/><polygon class="cls-1" points="1296.19 1023.5 1616.5 703.2 1616.5 747.04 1340.04 1023.5 1296.19 1023.5"/><path d="M1616,704.4v42.43L1339.83,1023H1297.4L1616,704.4m1-2.41-322,322h45.25L1617,747.24V702Z" transform="translate(0 0)"/><polygon class="cls-1" points="1388.92 1023.5 1616.5 795.92 1616.5 839.76 1432.76 1023.5 1388.92 1023.5"/><path d="M1616,797.13v42.42L1432.55,1023h-42.42L1616,797.13m1-2.42L1387.71,1024H1433l184-184V794.71Z" transform="translate(0 0)"/><polygon class="cls-1" points="1481.64 1023.5 1616.5 888.64 1616.5 932.49 1525.48 1023.5 1481.64 1023.5"/><path d="M1616,889.85v42.43L1525.28,1023h-42.43L1616,889.85m1-2.41L1480.44,1024h45.25L1617,932.69V887.44Z" transform="translate(0 0)"/><polygon class="cls-1" points="1574.37 1023.5 1616.5 981.37 1616.5 1023.5 1574.37 1023.5"/><path d="M1616,982.58V1023h-40.42L1616,982.58m1-2.42L1573.16,1024H1617V980.16Z" transform="translate(0 0)"/></g></svg>